<mxfile host="Electron" agent="Mozilla/5.0 (Windows NT 10.0; Win64; x64) AppleWebKit/537.36 (KHTML, like Gecko) draw.io/25.0.2 Chrome/128.0.6613.186 Electron/32.2.5 Safari/537.36" version="25.0.2">
  <diagram name="Page-1" id="ktTZWYVBOJoEcbeJuFbN">
    <mxGraphModel dx="284" dy="183" grid="1" gridSize="10" guides="1" tooltips="1" connect="1" arrows="1" fold="1" page="1" pageScale="1" pageWidth="850" pageHeight="1100" math="0" shadow="0">
      <root>
        <mxCell id="0" />
        <mxCell id="1" parent="0" />
        <mxCell id="jlV0nLB6JibqINSPaM5A-1" value="client" style="shape=umlActor;verticalLabelPosition=bottom;verticalAlign=top;html=1;" vertex="1" parent="1">
          <mxGeometry x="110" y="44" width="20" height="35" as="geometry" />
        </mxCell>
        <mxCell id="jlV0nLB6JibqINSPaM5A-2" value="commercial" style="shape=umlActor;verticalLabelPosition=bottom;verticalAlign=top;html=1;" vertex="1" parent="1">
          <mxGeometry x="240" y="46" width="20" height="35" as="geometry" />
        </mxCell>
        <mxCell id="jlV0nLB6JibqINSPaM5A-3" value="&lt;span style=&quot;font-size: 11px;&quot;&gt;Product&lt;/span&gt;" style="rounded=0;whiteSpace=wrap;html=1;align=center;fillColor=none;" vertex="1" parent="1">
          <mxGeometry x="380" y="78" width="80" height="20" as="geometry" />
        </mxCell>
        <mxCell id="jlV0nLB6JibqINSPaM5A-4" value="&lt;span style=&quot;font-size: 11px;&quot;&gt;clientCategory&lt;/span&gt;" style="rounded=0;whiteSpace=wrap;html=1;align=center;fillColor=none;" vertex="1" parent="1">
          <mxGeometry x="580" y="79" width="80" height="20" as="geometry" />
        </mxCell>
        <mxCell id="jlV0nLB6JibqINSPaM5A-5" value="" style="endArrow=none;endSize=7;html=1;rounded=0;dashed=1;endFill=0;" edge="1" parent="1">
          <mxGeometry width="160" relative="1" as="geometry">
            <mxPoint x="120" y="410" as="sourcePoint" />
            <mxPoint x="120" y="100" as="targetPoint" />
          </mxGeometry>
        </mxCell>
        <mxCell id="jlV0nLB6JibqINSPaM5A-6" value="" style="endArrow=none;endSize=7;html=1;rounded=0;dashed=1;endFill=0;" edge="1" parent="1">
          <mxGeometry width="160" relative="1" as="geometry">
            <mxPoint x="250" y="410" as="sourcePoint" />
            <mxPoint x="250" y="100" as="targetPoint" />
          </mxGeometry>
        </mxCell>
        <mxCell id="jlV0nLB6JibqINSPaM5A-13" value="" style="rounded=0;whiteSpace=wrap;html=1;fillColor=none;connectable=0;" vertex="1" parent="1">
          <mxGeometry x="244" y="150" width="10" height="120" as="geometry" />
        </mxCell>
        <mxCell id="jlV0nLB6JibqINSPaM5A-15" value="&lt;br&gt;&lt;div&gt;&lt;font size=&quot;1&quot;&gt;Qoute Demand&lt;/font&gt;&lt;/div&gt;" style="html=1;verticalAlign=bottom;endArrow=open;curved=0;rounded=0;endFill=0;" edge="1" parent="1">
          <mxGeometry relative="1" as="geometry">
            <mxPoint x="120" y="150" as="sourcePoint" />
            <mxPoint x="244" y="150" as="targetPoint" />
          </mxGeometry>
        </mxCell>
        <mxCell id="jlV0nLB6JibqINSPaM5A-16" value="" style="endArrow=none;endSize=7;html=1;rounded=0;dashed=1;endFill=0;" edge="1" parent="1">
          <mxGeometry width="160" relative="1" as="geometry">
            <mxPoint x="420" y="410" as="sourcePoint" />
            <mxPoint x="420" y="100" as="targetPoint" />
          </mxGeometry>
        </mxCell>
        <mxCell id="jlV0nLB6JibqINSPaM5A-17" value="" style="rounded=0;whiteSpace=wrap;html=1;fillColor=none;connectable=0;" vertex="1" parent="1">
          <mxGeometry x="415" y="160" width="10" height="40" as="geometry" />
        </mxCell>
        <mxCell id="jlV0nLB6JibqINSPaM5A-18" value="Calculating Price" style="html=1;verticalAlign=bottom;endArrow=open;curved=0;rounded=0;endFill=0;anchorPointDirection=1;" edge="1" parent="1">
          <mxGeometry relative="1" as="geometry">
            <mxPoint x="254" y="160" as="sourcePoint" />
            <mxPoint x="416" y="160" as="targetPoint" />
          </mxGeometry>
        </mxCell>
        <mxCell id="jlV0nLB6JibqINSPaM5A-19" value="" style="html=1;points=[[0,0,0,0,5],[0,1,0,0,-5],[1,0,0,0,5],[1,1,0,0,-5]];perimeter=orthogonalPerimeter;outlineConnect=0;targetShapes=umlLifeline;portConstraint=eastwest;newEdgeStyle={&quot;curved&quot;:0,&quot;rounded&quot;:0};fillColor=none;connectable=0;" vertex="1" parent="1">
          <mxGeometry x="615" y="239" width="10" height="30" as="geometry" />
        </mxCell>
        <mxCell id="jlV0nLB6JibqINSPaM5A-20" value="purchase&amp;nbsp;&lt;div&gt;verification&lt;/div&gt;" style="html=1;align=left;spacingLeft=2;endArrow=open;rounded=0;edgeStyle=orthogonalEdgeStyle;curved=0;rounded=0;endFill=0;" edge="1" parent="1">
          <mxGeometry relative="1" as="geometry">
            <mxPoint x="425" y="170" as="sourcePoint" />
            <Array as="points">
              <mxPoint x="445" y="170" />
              <mxPoint x="445" y="190" />
            </Array>
            <mxPoint x="425" y="190" as="targetPoint" />
          </mxGeometry>
        </mxCell>
        <mxCell id="jlV0nLB6JibqINSPaM5A-22" value="" style="endArrow=none;endSize=7;html=1;rounded=0;dashed=1;endFill=0;" edge="1" parent="1">
          <mxGeometry width="160" relative="1" as="geometry">
            <mxPoint x="620" y="410" as="sourcePoint" />
            <mxPoint x="620" y="100" as="targetPoint" />
          </mxGeometry>
        </mxCell>
        <mxCell id="jlV0nLB6JibqINSPaM5A-24" value="Calculating Sold" style="html=1;verticalAlign=bottom;endArrow=open;curved=0;rounded=0;endFill=0;anchorPointDirection=1;" edge="1" parent="1">
          <mxGeometry relative="1" as="geometry">
            <mxPoint x="254" y="240" as="sourcePoint" />
            <mxPoint x="615" y="240" as="targetPoint" />
          </mxGeometry>
        </mxCell>
        <mxCell id="jlV0nLB6JibqINSPaM5A-25" value="&lt;font size=&quot;1&quot;&gt;Qoute&lt;/font&gt;" style="html=1;verticalAlign=bottom;endArrow=open;dashed=1;endSize=8;curved=0;rounded=0;exitX=0;exitY=1;exitDx=0;exitDy=-5;" edge="1" parent="1">
          <mxGeometry relative="1" as="geometry">
            <mxPoint x="115.03877861555233" y="270" as="targetPoint" />
            <mxPoint x="613" y="268" as="sourcePoint" />
          </mxGeometry>
        </mxCell>
        <mxCell id="jlV0nLB6JibqINSPaM5A-26" value="Creation" style="html=1;verticalAlign=bottom;endArrow=open;curved=0;rounded=0;endFill=0;anchorPointDirection=1;" edge="1" parent="1">
          <mxGeometry relative="1" as="geometry">
            <mxPoint x="251" y="314" as="sourcePoint" />
            <mxPoint x="740" y="314" as="targetPoint" />
          </mxGeometry>
        </mxCell>
        <mxCell id="jlV0nLB6JibqINSPaM5A-27" value="&lt;span style=&quot;font-size: 11px;&quot;&gt;Object&lt;/span&gt;" style="rounded=0;whiteSpace=wrap;html=1;align=center;fillColor=none;" vertex="1" parent="1">
          <mxGeometry x="740" y="300" width="80" height="20" as="geometry" />
        </mxCell>
        <mxCell id="jlV0nLB6JibqINSPaM5A-28" value="" style="endArrow=none;endSize=7;html=1;rounded=0;dashed=1;endFill=0;" edge="1" parent="1" source="jlV0nLB6JibqINSPaM5A-52">
          <mxGeometry width="160" relative="1" as="geometry">
            <mxPoint x="780" y="385" as="sourcePoint" />
            <mxPoint x="780" y="319" as="targetPoint" />
          </mxGeometry>
        </mxCell>
        <mxCell id="jlV0nLB6JibqINSPaM5A-50" value="X" style="text;html=1;align=center;verticalAlign=middle;whiteSpace=wrap;rounded=0;" vertex="1" parent="1">
          <mxGeometry x="770" y="383" width="20" height="10" as="geometry" />
        </mxCell>
        <mxCell id="jlV0nLB6JibqINSPaM5A-51" value="&lt;span style=&quot;font-size: 12px; text-align: left; text-wrap: wrap; background-color: rgb(251, 251, 251);&quot;&gt;acknowledgment&lt;/span&gt;" style="html=1;verticalAlign=bottom;endArrow=open;dashed=1;endSize=8;curved=0;rounded=0;exitX=0;exitY=1;exitDx=0;exitDy=-5;" edge="1" parent="1">
          <mxGeometry relative="1" as="geometry">
            <mxPoint x="250" y="389" as="targetPoint" />
            <mxPoint x="779" y="387" as="sourcePoint" />
          </mxGeometry>
        </mxCell>
        <mxCell id="jlV0nLB6JibqINSPaM5A-53" value="" style="endArrow=none;endSize=7;html=1;rounded=0;dashed=1;endFill=0;" edge="1" parent="1" target="jlV0nLB6JibqINSPaM5A-52">
          <mxGeometry width="160" relative="1" as="geometry">
            <mxPoint x="780" y="385" as="sourcePoint" />
            <mxPoint x="780" y="319" as="targetPoint" />
          </mxGeometry>
        </mxCell>
        <mxCell id="jlV0nLB6JibqINSPaM5A-52" value="&lt;font style=&quot;font-size: 10px;&quot;&gt;Destruction&lt;/font&gt;" style="text;html=1;align=center;verticalAlign=middle;whiteSpace=wrap;rounded=0;" vertex="1" parent="1">
          <mxGeometry x="750" y="360" width="60" height="10" as="geometry" />
        </mxCell>
      </root>
    </mxGraphModel>
  </diagram>
</mxfile>
